<?xml version="1.0" encoding="UTF-8" standalone="no"?>
<svg
   xmlns:dc="http://purl.org/dc/elements/1.1/"
   xmlns:cc="http://creativecommons.org/ns#"
   xmlns:rdf="http://www.w3.org/1999/02/22-rdf-syntax-ns#"
   xmlns:svg="http://www.w3.org/2000/svg"
   xmlns="http://www.w3.org/2000/svg"
   xmlns:sodipodi="http://sodipodi.sourceforge.net/DTD/sodipodi-0.dtd"
   xmlns:inkscape="http://www.inkscape.org/namespaces/inkscape"
   height="24px"
   viewBox="0 0 24 24"
   width="24px"
   fill="#000000"
   version="1.1"
   id="svg6"
   sodipodi:docname="search_white_24dp.svg"
   inkscape:version="0.92.5 (2060ec1f9f, 2020-04-08)">
  <metadata
     id="metadata12">
    <rdf:RDF>
      <cc:Work
         rdf:about="">
        <dc:format>image/svg+xml</dc:format>
        <dc:type
           rdf:resource="http://purl.org/dc/dcmitype/StillImage" />
        <dc:title></dc:title>
      </cc:Work>
    </rdf:RDF>
  </metadata>
  <defs
     id="defs10" />
  <sodipodi:namedview
     pagecolor="#ffffff"
     bordercolor="#666666"
     borderopacity="1"
     objecttolerance="10"
     gridtolerance="10"
     guidetolerance="10"
     inkscape:pageopacity="0"
     inkscape:pageshadow="2"
     inkscape:window-width="1294"
     inkscape:window-height="704"
     id="namedview8"
     showgrid="false"
     inkscape:zoom="20.972656"
     inkscape:cx="13.168188"
     inkscape:cy="12"
     inkscape:window-x="72"
     inkscape:window-y="27"
     inkscape:window-maximized="1"
     inkscape:current-layer="svg6" />
  <path
     d="M0 0h24v24H0z"
     fill="none"
     id="path2" />
  <path
     d="M15.5 14h-.79l-.28-.27C15.41 12.59 16 11.11 16 9.5 16 5.91 13.09 3 9.5 3S3 5.91 3 9.5 5.91 16 9.5 16c1.61 0 3.09-.59 4.23-1.57l.27.28v.79l5 4.99L20.49 19l-4.99-5zm-6 0C7.01 14 5 11.99 5 9.5S7.01 5 9.5 5 14 7.01 14 9.5 11.99 14 9.5 14z"
     id="path4" />
  <path
     style="fill:#ffffff;stroke-width:0.04768113"
     d="M 16.522555,17.98765 14.031216,15.529433 V 15.11391 c 0,-0.408543 -0.0027,-0.418118 -0.159346,-0.569968 -0.137336,-0.133111 -0.167458,-0.14467 -0.218072,-0.08368 -0.127503,0.153631 -0.938994,0.668235 -1.400191,0.887926 -0.972158,0.463087 -1.862354,0.642353 -2.990504,0.602223 C 8.1842773,15.912031 7.4927876,15.732218 6.5273857,15.23902 5.4229811,14.674809 4.5155434,13.8059 3.8863712,12.710142 1.6530394,8.8206002 3.9900106,3.8794767 8.4230086,3.1182029 c 0.5483283,-0.094164 1.6103234,-0.093986 2.1570004,3.619e-4 2.54893,0.4399038 4.591487,2.3384284 5.207351,4.8401526 0.460778,1.8717434 0.03943,3.9089656 -1.124421,5.4365636 l -0.259145,0.340138 0.132559,0.138363 c 0.126092,0.131611 0.152488,0.138362 0.541019,0.138362 h 0.408459 l 2.491374,2.491712 2.491373,2.491712 -0.727342,0.72515 -0.727341,0.725149 z m -5.854283,-4.118004 c 1.639186,-0.443065 2.860578,-1.724769 3.249294,-3.409747 0.112416,-0.4872893 0.113466,-1.4244829 0.0022,-1.9188085 C 13.621582,7.2171402 12.735039,6.0695929 11.551797,5.4760381 10.807525,5.1026855 10.191759,4.977138 9.2797189,5.0127875 8.6448828,5.0376017 8.3370958,5.1009311 7.790393,5.3192273 6.5823491,5.801594 5.5810731,6.8851513 5.1930745,8.1299843 4.699798,9.7125849 5.0808371,11.384963 6.21024,12.594316 c 0.6541457,0.700453 1.4985506,1.164695 2.4568488,1.350741 0.4890134,0.09494 1.5138242,0.05632 2.0011832,-0.07541 z"
     id="path14"
     inkscape:connector-curvature="0" />
</svg>
